# xmcd
#
# Track frame offsets:
#	150
#	10807
#	25682
#	41032
#	62112
#	75640
#	90557
#	107152
#	125802
#	138687
#	159760
#	176260
#
# Disc length: 2552 seconds
#
# Revision: 0
# Processed by: cddbd v1.4PL0 Copyright (c) Steve Scherf et al.
# Submitted via: dBpowerAMP V4.0
#
DISCID=9309f60c
DTITLE=Clara Ghimel - Every Night Of The Week
DYEAR=1996
DGENRE=Blues
TTITLE0=Got You Have You Be My Man
TTITLE1=Reconsider Baby
TTITLE2=Hot And Cluel
TTITLE3=That's Why I'm Crying
TTITLE4=River's Invitation
TTITLE5=The Weight
TTITLE6=Distant Visions
TTITLE7=I'd Rather Go Blind
TTITLE8=Who's Been Talking
TTITLE9=Help Me Through The Day
TTITLE10=Every Night Of The Week
TTITLE11=(Mama) He Treats Your Daughter Mean
EXTD=
EXTT0=
EXTT1=
EXTT2=
EXTT3=
EXTT4=
EXTT5=
EXTT6=
EXTT7=
EXTT8=
EXTT9=
EXTT10=
EXTT11=
PLAYORDER=
